<?xml version="1.0" encoding="utf-8"?>
<!-- Generator: Adobe Illustrator 24.1.1, SVG Export Plug-In . SVG Version: 6.00 Build 0)  -->
<svg version="1.1" id="Layer_1" xmlns="http://www.w3.org/2000/svg" xmlns:xlink="http://www.w3.org/1999/xlink" x="0px" y="0px"
	 viewBox="0 0 512 512" style="enable-background:new 0 0 512 512;" xml:space="preserve">
<g>
	<path d="M503.13,337.53L385.14,455.52c-5.97,5.97-13.26,8.62-21.21,8.62c-7.29,0-15.25-2.65-21.21-8.62
		c-11.27-11.26-11.93-30.49,0-41.76l67.62-67.62H33.14c-7.95,0-16.57-3.31-21.87-8.62C5.31,332.23,0,324.27,0,316.99V165.85
		c0-16.58,13.26-29.83,29.83-29.83s29.83,13.26,29.83,29.83v121.31h348.68l-65.63-67.62c-11.27-11.27-11.27-30.49,0-41.76
		s30.5-11.27,41.76,0l118,117.99C515.06,307.7,515.06,326.26,503.13,337.53z M34.47,112.81c8.62,0,17.24-3.31,23.2-9.28
		c5.97-5.97,9.94-14.58,9.94-23.2c0-8.62-3.31-17.24-9.94-23.2c-5.96-5.97-14.58-9.28-23.2-9.28s-17.23,3.31-23.2,9.28
		c-5.96,5.97-9.94,14.58-9.94,23.2c0,8.62,3.31,17.24,9.94,23.2C17.24,108.84,25.86,112.81,34.47,112.81z"/>
</g>
</svg>
