<?xml version="1.0" encoding="utf-8"?>
<svg width="198" height="201" viewBox="0 0 198 201" fill="none" xmlns="http://www.w3.org/2000/svg" xmlns:bx="https://boxy-svg.com"><defs><bx:export><bx:file format="svg"/></bx:export></defs><path d="M50.1387 0L50.1387 16.8661" stroke="#B7B7B7"/><path d="M50.1387 23.8965L50.1387 40.7626" stroke="#B7B7B7"/><path d="M29.7598 20.3782L47.0308 20.3782" stroke="#B7B7B7"/><path d="M53.25 20.3782L70.5211 20.3782" stroke="#B7B7B7"/><path d="M50.1387 0L50.1387 16.8661" stroke="#B7B7B7"/><path d="M50.1387 23.8965L50.1387 40.7626" stroke="#B7B7B7"/><path d="M29.7598 20.3782L47.0308 20.3782" stroke="#B7B7B7"/><path d="M53.25 20.3782L70.5211 20.3782" stroke="#B7B7B7"/><circle cx="50.3747" cy="20.6106" r="3.74251" fill="#B7B7B7" stroke="#FCFCFD" stroke-width="2.8"/><path d="M14.875 31.3142L14.875 43.7103" stroke="#B7B7B7" stroke-width="0.641132"/><path d="M14.875 48.666L14.875 61.0621" stroke="#B7B7B7" stroke-width="0.641132"/><path d="M0 46.1895L12.3961 46.1895" stroke="#B7B7B7" stroke-width="0.641132"/><path d="M17.3555 46.1895L29.7516 46.1895" stroke="#B7B7B7" stroke-width="0.641132"/><path d="M14.875 31.3142L14.875 43.7103" stroke="#B7B7B7"/><path d="M14.875 48.666L14.875 61.0621" stroke="#B7B7B7"/><path d="M0 46.1895L12.3961 46.1895" stroke="#B7B7B7"/><path d="M17.3555 46.1895L29.7516 46.1895" stroke="#B7B7B7"/><circle cx="14.8068" cy="46.393" r="2.67427" fill="#B7B7B7" stroke="#FCFCFD" stroke-width="1.98296"/><circle cx="14.7372" cy="46.0621" r="3.74362" fill="#B7B7B7" stroke="#FCFCFD" stroke-width="2.8"/><path d="M66.4014 74.5025L162.49 47.8208V173.324L66.5444 199.986" style=""/><path d="M 66.268 74.021 L 156.225 49.041 L 156.225 50.08 L 66.535 74.984 Z M 66.678 200.468 L 66.411 199.504 L 156.225 174.546 L 156.225 175.584 Z M 162.99 167.393 L 161.99 167.393 L 161.99 55.726 L 162.99 55.726 Z" style="fill: rgb(183, 183, 183);"/><path d="M44.4697 61.1562L66.403 74.4971V200L44.4697 186.659V61.1562Z" fill="#B7B7B7" stroke="#B7B7B7"/><path d="M122.803 20.6428L44.4697 60.6654V186.168" style=""/><path d="M 122.576 20.198 L 44.242 60.22 L 43.97 60.359 L 43.97 60.665 L 43.97 186.168 L 44.97 186.168 L 44.97 60.971 L 123.03 21.088 Z" style="fill: rgb(183, 183, 183);"/><path d="M63.1855 60.7993L134.813 29.0378" style=""/><path d="M64.3076 67.1763L155.354 34.3105" style=""/><path d="M 134.61 28.581 L 135.016 29.495 L 64.887 60.591 L 63.812 59.974 Z M 144.554 37.677 L 145.666 38.339 L 72.281 64.83 L 71.143 64.177 Z" style="fill: rgb(183, 183, 183);"/><path d="M178.562 168.996L178.562 179.624" stroke="#B7B7B7" stroke-width="0.641132"/><path d="M178.562 183.876L178.562 194.504" stroke="#B7B7B7" stroke-width="0.641132"/><path d="M165.807 181.75L176.435 181.75" stroke="#B7B7B7" stroke-width="0.641132"/><path d="M180.688 181.75L191.316 181.75" stroke="#B7B7B7" stroke-width="0.641132"/><path d="M178.562 168.996L178.562 179.624" stroke="#B7B7B7"/><path d="M178.562 183.876L178.562 194.504" stroke="#B7B7B7"/><path d="M165.807 181.75L176.435 181.75" stroke="#B7B7B7"/><path d="M180.688 181.75L191.316 181.75" stroke="#B7B7B7"/><circle cx="179.093" cy="182.281" r="2.58578" fill="#B7B7B7" stroke="#FCFCFD" stroke-width="1.98296"/><circle cx="178.561" cy="181.75" r="3.52573" fill="#B7B7B7" stroke="#FCFCFD" stroke-width="2.8"/></svg>